<svg width="97" height="49" viewBox="0 0 97 49" fill="none" xmlns="http://www.w3.org/2000/svg">
<path d="M1.7 40.6001L5.3 44.2001H8.9L11.5 41.6001H13V44.2001H19.6L23.2 40.5001H31.4L33.5 38.4001H35.4V42.5001L39.8 46.9001H47.2L48.8 48.4001H55.2H66.1L71.8 42.8001H79.1L81.5 40.4001H84.4V38.1001H87V34.8001H88.8V27.6001L91.1 25.3001V23.8001L88.5 21.2001H94.2L96.1 19.3001V15.4001L92.3 11.6001V4.0001L89.6 1.4001H79.9L78.7 0.100098H66.5V7.3001H57.5L55.6 5.7001H53.1V9.6001H48.6V11.9001L41.4 19.1001L44.7 22.3001V30.8001L40.5 26.6001H34.1L32.2 28.5001H27.1L23.3 32.3001H19.5L17.3 30.1001H11.7V34.1001L10.1 35.7001L4.9 30.5001H0V32.1001L1.7 33.8001V40.6001Z" fill="black"/>
</svg>
