<svg width="72" height="96" viewBox="0 0 72 96" fill="none" xmlns="http://www.w3.org/2000/svg">
<path d="M71.7695 48.1021C71.9687 46.6998 70.8672 45.5982 70.1679 44.4966C69.6679 43.5942 69.4648 42.4927 68.9648 41.4888C68.664 39.9849 69.6679 38.481 69.2656 36.8794C69.164 35.977 68.4648 34.9771 68.2617 33.9732C68.1601 33.3716 68.4609 32.6724 68.5625 32.0709C68.9648 30.567 66.7578 29.3639 65.7578 28.2623C64.5547 27.1607 65.6562 25.9576 66.3593 25.0553C67.1601 23.9537 67.1601 22.6491 67.0625 21.3483C66.6601 19.6452 66.6601 17.9421 65.9609 16.3366C65.6601 15.735 64.457 15.6334 64.0586 15.1335C63.8593 14.8327 64.3593 14.6335 64.6601 14.4304C65.4609 14.028 65.5625 13.2273 64.8593 12.3249C63.957 11.5241 63.0546 10.2194 61.8515 10.1218C61.3515 10.1218 60.6484 10.4225 60.1484 10.4225C58.8476 10.4225 59.2461 8.71944 59.9492 8.11784C60.3516 7.81706 60.9531 7.91862 61.4531 8.01628C61.5547 8.01628 61.6523 8.01628 61.6523 7.91472C61.6523 7.61394 61.0508 6.31312 61.0508 5.61002C61.1523 4.60612 59.8477 4.60612 59.4492 3.90692C59.0468 3.2038 58.2461 3.30536 58.1484 4.2077C58.0468 4.80926 57.6484 5.3093 57.4453 5.8093C57.5468 7.0124 57.4453 7.3132 56.2422 6.9109C55.3398 6.71168 53.5352 6.20778 52.336 6.4109C50.9337 7.5125 50.0313 9.6179 48.129 10.1179C47.2266 10.4187 45.9259 10.3171 45.2228 11.0202C44.5196 11.5202 44.2189 12.4225 43.7189 13.0241C43.0157 13.7273 42.215 12.7234 41.4142 12.6218C40.4103 12.321 39.1095 12.9226 38.7072 12.2195C38.3048 11.3171 39.8088 10.7156 40.3088 10.0164C40.8088 9.21558 41.0119 8.01246 40.6095 7.61016C40.4103 7.41094 39.9064 7.5086 39.6056 7.61016C38.7033 7.91094 37.8009 8.21172 36.8986 7.61016C36.0979 7.0086 34.7931 6.80938 33.9924 6.60626C33.3909 6.40704 32.4885 6.10626 31.7893 6.0047C31.6878 5.90314 31.7893 5.80548 31.9886 5.5047C32.2893 5.10236 32.4886 4.5008 32.3909 4.0008C32.3909 2.3992 31.5901 1.8953 30.0862 1.2938C28.8831 0.391458 27.4807 1.2938 26.18 0.793798C25.2777 0.391458 21.2698 -0.710102 21.4691 0.895358C21.6683 2.19616 22.973 3.39926 23.0707 4.60236C23.0707 4.80158 23.0707 5.10236 23.1723 5.20392C23.3715 5.91486 24.0746 6.01642 23.473 6.41872C23.3715 6.52028 23.1723 6.61794 23.0707 6.7195C22.2699 7.12184 21.1684 8.2234 22.3676 8.7234C22.8676 9.02418 24.3715 8.2234 23.5707 9.32496C23.1683 10.0281 23.3715 10.6258 23.7699 11.2273C24.3715 12.028 23.1683 12.4304 23.6683 13.2312C24.2699 14.3328 25.7738 14.0319 26.7738 14.532C28.0746 15.2351 28.4769 17.3367 29.8793 18.239C30.3793 18.6413 29.5786 18.239 29.0786 17.739C27.977 16.7351 27.477 14.7312 25.8716 14.6335C24.6685 14.6335 23.5669 14.735 22.3638 14.5319C21.1607 14.5319 20.6607 16.5358 20.9615 17.6374C21.2622 19.6413 18.7584 16.5358 19.1568 19.0397C19.356 19.8405 18.9575 20.3405 18.356 19.942C17.7544 19.442 18.356 18.4381 17.6529 17.5358C17.1529 16.9343 16.4498 16.7351 15.5474 16.7351C14.1451 16.9343 12.3404 16.7351 11.0396 17.3366C10.2388 17.8366 10.0357 18.5397 9.73875 19.1413C9.53953 19.5437 9.33641 20.0437 9.43797 20.5436C9.53953 21.2467 10.2388 21.446 10.8403 21.7467C11.6411 22.3483 10.7387 23.4498 10.8403 24.3522C11.0395 26.0553 10.0395 27.6569 9.73867 29.3639C9.63711 29.6647 9.53945 30.067 9.33633 30.3678C8.6332 31.0709 6.53164 30.7702 7.13324 32.2701C7.2348 32.6725 7.73479 32.9732 8.33633 33.1725C9.53943 33.4732 9.84023 34.7741 9.34023 35.778C9.03945 36.4811 8.13714 36.9811 7.73864 37.5827C7.23864 38.1842 7.84019 38.985 7.43785 39.5866C7.23863 39.8873 6.83629 40.0866 6.53551 40.1881C5.63317 40.3873 4.93391 40.6881 4.33241 40.5905C3.53163 40.4889 2.62931 40.0905 2.02771 40.692C1.12537 41.2936 1.22693 41.8951 1.82849 42.8951C2.43005 43.899 3.43009 45.1998 2.93009 46.5006C2.62931 47.3014 2.02775 48.1022 2.12931 48.9068C2.32853 49.9107 0.324614 50.7115 1.12541 51.7115C1.92619 52.4146 1.32463 53.4146 1.62541 54.317C2.02775 55.0201 2.72701 55.6178 2.82851 56.4225C3.02773 57.3249 3.83241 57.9264 3.93011 58.8287C3.93011 59.4303 3.52777 59.8326 3.12933 60.231C2.12543 61.0318 1.82853 62.8365 2.42621 63.8365C2.82855 64.7389 3.62931 65.1373 4.23091 65.7388C5.43401 66.7427 3.93014 68.145 3.93014 69.2466C4.0317 70.149 5.13324 70.7505 5.63324 71.6528C6.03558 72.2544 6.33637 73.2544 7.03554 73.4575C7.43788 73.4575 7.83632 73.356 8.23864 73.4575C9.03942 73.6567 9.74253 74.3599 10.6448 74.0591C11.2464 73.9575 11.7464 73.6567 12.3479 73.9575C12.6487 74.0591 12.8479 74.2583 13.1487 74.4575C14.4495 75.4614 15.7542 74.9575 17.2581 75.7583C18.762 76.2583 17.8597 77.4614 17.2581 78.3638C16.2542 79.5669 15.2542 80.8677 15.055 82.4732C14.8558 83.6763 14.0511 84.8794 13.7542 86.1802C13.555 87.3833 13.7542 88.6841 13.555 89.8872C13.3558 90.688 13.3558 91.7895 13.9573 92.3911C14.2581 92.7935 14.5589 92.7935 14.9612 92.7935C15.6644 92.7935 16.7659 92.895 17.5667 92.6919C18.5706 92.2896 19.6722 92.6919 20.6722 92.1919C21.1722 91.9927 21.1722 91.7896 20.8715 91.5903C19.9691 90.8872 21.2738 89.8872 21.9731 90.3872C22.1723 90.5865 22.3754 90.7896 22.5746 90.8872C22.7738 91.0865 22.977 91.0865 23.2777 91.0865C23.477 91.188 23.7777 91.2857 24.2816 91.3872C25.0824 91.4888 26.1839 91.4888 26.9886 92.0904C27.7894 92.7935 28.7933 93.5943 29.8948 93.3912C30.598 93.2896 31.1956 92.8912 31.8987 93.2896C33.0003 93.7896 33.6018 95.2935 34.7034 95.7935C35.5042 95.6919 36.1057 94.5904 36.1057 93.9888C35.9065 92.2857 37.1096 93.0865 38.5119 93.0865C39.3127 93.188 39.715 93.5865 40.0158 94.1881C42.422 96.0904 44.426 92.2858 47.0314 92.485C47.8322 92.3834 48.8361 92.485 49.4376 91.8834C49.84 91.4811 49.9376 91.1803 50.6407 91.2818C51.7423 91.8834 53.7462 91.3834 54.4493 92.2857C54.9493 92.9889 56.1524 94.188 56.4532 92.485C56.6525 91.3834 55.7501 90.9811 55.7501 90.0788C55.6486 89.6764 55.7501 89.1764 55.5509 88.6765C55.1486 87.6726 54.1486 86.9734 54.6486 86.071C55.5509 84.2663 58.4572 84.3679 59.1564 82.6648C59.3556 82.1648 59.4571 81.5632 59.8595 81.1609C60.3595 80.6609 61.4611 81.3601 61.965 80.7585C62.6681 79.8562 62.465 78.3523 61.7658 77.5515C61.1642 76.7507 60.1642 76.4499 59.4611 75.8484C57.9572 74.5476 56.3556 72.4422 54.7502 71.4382C53.0471 70.5359 52.4454 68.2312 51.6446 66.6296C51.4454 65.8288 52.2462 64.7273 51.8439 64.0241C51.6447 63.7233 51.5431 63.7233 51.3439 63.5241C50.2423 62.7233 49.1408 61.6218 49.0392 60.1179C49.0392 58.8171 50.0431 60.6179 50.34 60.3171C50.6408 60.1179 51.0431 59.2155 51.7423 58.8132C53.1446 58.0125 54.8478 58.1101 56.2501 57.4109C56.9532 57.1102 57.5509 56.5086 58.254 56.0086C59.1563 55.7079 59.7579 55.6063 60.5587 54.8055C62.3634 54.0048 64.2657 53.3016 65.9689 52.3016C66.5704 51.8016 65.3673 50.7 66.7697 50.7C67.672 50.8016 67.9728 51.6024 68.4728 52.3016C70.0744 54.0047 71.4806 49.3954 71.6798 48.3954L71.7695 48.1021Z" fill="black"/>
</svg>
