<?xml version="1.0" encoding="UTF-8" standalone="no"?>
<!-- Created with Inkscape (http://www.inkscape.org/) -->
<svg
   xmlns:svg="http://www.w3.org/2000/svg"
   xmlns="http://www.w3.org/2000/svg"
   version="1.0"
   width="708.66144"
   height="405.66586"
   id="svg2591">
  <defs
     id="defs2593" />
  <g
     transform="translate(156.38345,421.34012)"
     id="layer1">
    <g
       id="g2870">
      <path
         d="M -156.38345,-15.674245 L 552.27797,-15.674245 L 552.27797,-421.34012 L -156.38345,-421.34012 L -156.38345,-15.674245 z "
         style="fill:#ffffff;fill-rule:nonzero;stroke:none"
         id="path2754" />
      <path
         d="M -156.38345,-15.674245 L 552.27797,-15.674245 L 552.27797,-421.34012 L -156.38345,-421.34012 L -156.38345,-15.674245 z "
         style="fill:#0c3d6e;fill-rule:nonzero;stroke:none"
         id="path2762" />
      <path
         d="M -11.796757,-196.98476 L 9.5486422,-253.51246 L 30.510488,-196.98476 L -11.796757,-196.98476 M 24.683694,-314.90814 L -5.6306064,-314.90814 L -77.433493,-125.72771 L -39.56644,-125.72771 L -24.453517,-164.58312 L 43.491832,-164.58312 L 58.619466,-125.72771 L 96.486519,-125.72771 L 24.683694,-314.90814"
         style="fill:#ffffff;fill-rule:nonzero;stroke:none"
         id="path2766" />
      <path
         d="M 150.60974,-125.60232 L 113.96702,-125.60232 L 113.96702,-284.03328 L 69.152065,-284.03328 L 69.152065,-315.29168 L 193.12353,-315.29168 L 193.12353,-284.03328 L 150.60974,-284.03328 L 150.60974,-125.60232"
         style="fill:#ffffff;fill-rule:nonzero;stroke:none"
         id="path2770" />
      <path
         d="M 362.2567,-258.80824 C 361.48962,-230.17561 391.91456,-215.61589 405.31629,-207.22967 C 415.12602,-201.08567 430.2463,-192.49294 433.86779,-180.52948 C 435.91087,-173.79543 433.42524,-166.38281 429.72999,-162.17863 C 425.5922,-157.47291 418.68113,-154.84714 411.44553,-155.04628 C 396.91531,-155.42982 388.8905,-167.5703 379.60444,-181.62847 L 378.12929,-183.86331 L 353.02964,-158.86692 L 353.46481,-158.09984 C 367.19107,-133.99591 386.95068,-120.91135 410.57519,-120.28441 C 430.99124,-119.74598 447.82269,-128.12482 458.80517,-139.36546 C 469.27873,-150.09716 474.33111,-165.38708 473.40177,-183.59041 C 472.10364,-209.48665 444.95352,-225.15272 425.29717,-237.30795 C 408.9894,-247.39059 397.98479,-249.38204 398.34621,-262.76902 C 398.65599,-274.71034 410.42767,-281.87219 420.42918,-281.60666 C 430.71834,-281.34114 441.47218,-275.77245 449.92478,-266.3315 L 450.8615,-265.28414 L 470.9604,-291.95483 L 470.26708,-292.67028 C 457.47754,-306.00562 437.7253,-314.9229 419.94238,-315.40232 C 387.3711,-316.25053 363.11228,-291.12137 362.2567,-258.80824"
         style="fill:#ffffff;fill-rule:nonzero;stroke:none"
         id="path2774" />
      <path
         d="M 243.39659,-153.19497 C 230.94634,-153.19497 220.98909,-166.13203 220.98909,-177.82258 C 220.98909,-191.26118 234.65634,-200.26697 244.61359,-207.59845 L 273.75515,-169.28147 C 266.04013,-161.97211 254.87325,-153.19497 243.39659,-153.19497 M 255.28629,-291.15825 C 264.98539,-291.6893 270.48032,-282.45488 270.93762,-273.91376 C 271.40967,-265.13663 267.74392,-259.08114 261.5778,-253.37232 L 255.6182,-247.92902 L 246.00023,-259.87772 C 242.78441,-263.86062 241.05848,-268.39671 240.79296,-273.27207 C 240.32828,-282.03446 245.33641,-290.6272 255.28629,-291.15825 z M 322.24329,-168.8758 L 341.98078,-189.7049 L 321.1443,-214.37676 L 300.32995,-193.03874 L 273.57076,-226.82702 C 288.95656,-237.91276 304.77015,-253.6526 303.67854,-273.89901 C 302.19602,-301.42529 280.33432,-318.07972 253.22846,-316.61194 C 226.38075,-315.16629 206.46625,-295.76809 207.94139,-268.47784 C 208.74535,-253.61572 215.87032,-241.78503 225.23014,-230.30837 L 213.73135,-222.72611 C 196.79665,-211.49285 186.57386,-195.3916 186.57386,-174.89441 C 186.57386,-143.91629 209.99923,-121.20638 241.62641,-121.20638 C 262.78005,-121.20638 279.9729,-131.45128 295.42508,-144.63174 L 310.61912,-126.08912 L 355.19811,-126.08912 L 322.24329,-168.8758"
         style="fill:#ffffff;fill-rule:nonzero;stroke:none"
         id="path2778" />
    </g>
  </g>
</svg>
