<?xml version="1.0" encoding="UTF-8" standalone="no"?>
<!-- Created with Inkscape (http://www.inkscape.org/) -->
<svg
   xmlns:svg="http://www.w3.org/2000/svg"
   xmlns="http://www.w3.org/2000/svg"
   version="1.0"
   width="956.69287"
   height="623.97638"
   id="svg2">
  <defs
     id="defs4" />
  <g
     transform="translate(478.5365,-699.91261)"
     id="layer1">
    <path
       d="M -540.87991,411.47345 L -540.87991,411.47345 L -540.87991,411.47345 L -540.87991,411.47345 z"
       id="path4124"
       style="fill:#ffffff;fill-opacity:1;fill-rule:nonzero;stroke:none" />
    <g
       transform="translate(35.433054,35.517844)"
       id="g4499">
      <path
         d="M 187.10316,706.06672 L 211.73047,706.06672 L 211.73047,761.34652 L 189.44862,761.34652 C 189.44862,761.34652 184.75771,725.2943 136.67591,727.69723 C 136.67591,727.69723 83.903224,732.50447 83.903224,792.59151 C 83.903224,792.59151 85.075954,850.27424 142.53955,852.67717 C 142.53955,852.67717 178.89407,855.08148 191.79407,819.02925 L 218.76681,819.02925 C 218.76681,819.02925 212.9031,864.69458 160.13045,874.30906 C 160.13045,874.30906 105.01229,886.32646 74.521404,845.467 C 74.521404,845.467 38.166884,799.80168 68.657774,744.52188 C 68.657774,744.52188 92.112304,703.66379 142.53955,701.25948 C 142.53955,701.25948 168.33953,701.25948 187.10316,718.08413 L 187.10316,706.06672"
         id="path4196"
         style="fill:#9c9c6d;fill-opacity:1;fill-rule:nonzero;stroke:none" />
      <path
         d="M -378.85473,836.09282 C -378.85473,836.09282 -396.44564,848.11023 -431.62743,848.11023 L -431.62743,725.53322 C -431.62743,725.53322 -370.64564,718.32305 -357.74566,771.19992 C -357.74566,771.19992 -347.19111,809.65507 -378.85473,836.09282 z M -328.42748,778.41009 C -337.8093,699.09547 -422.24562,703.90271 -422.24562,703.90271 L -478.5365,703.90271 L -478.5365,725.53322 L -459.77287,725.53322 L -459.77287,848.11023 L -478.5365,848.11023 L -478.5365,869.74074 L -412.8638,869.74074 C -378.85473,869.74074 -360.0911,852.91747 -360.0911,852.91747 C -321.39112,826.47834 -328.42748,778.41009 -328.42748,778.41009"
         id="path4200"
         style="fill:#9c9c6d;fill-opacity:1;fill-rule:nonzero;stroke:none" />
      <path
         d="M 329.70676,848.35052 C 315.63409,850.75345 302.73405,845.94759 293.35218,843.54328 C 240.57953,817.10554 252.3068,732.98505 315.63409,728.17782 C 330.87953,728.17782 341.43403,730.58075 350.8159,735.38799 C 397.72485,764.23004 384.82495,838.73605 329.70676,848.35052 z M 395.37945,745.00246 C 383.65218,725.77351 354.33407,699.33576 314.46132,704.143 C 258.17037,706.54593 213.60682,761.82573 239.40676,821.91277 C 246.44323,841.14035 260.5159,855.56069 278.10674,862.77086 C 292.17955,872.38534 313.28855,877.19257 334.3977,872.38534 C 388.34311,862.77086 428.21586,802.6852 395.37945,745.00246"
         id="path4204"
         style="fill:#9c9c6d;fill-opacity:1;fill-rule:nonzero;stroke:none" />
      <path
         d="M -213.50027,848.35052 C -227.57299,850.75345 -241.6457,845.94759 -249.85479,843.54328 C -302.6275,817.10554 -290.90023,732.98505 -227.57299,728.17782 C -212.32754,728.17782 -201.773,730.58075 -192.39119,735.38799 C -145.48213,764.23004 -158.38211,838.73605 -213.50027,848.35052 z M -149.00031,745.00246 C -159.55484,725.77351 -188.87301,699.33576 -228.74572,704.143 C -285.03659,706.54593 -329.60021,761.82573 -303.80023,821.91277 C -296.76386,841.14035 -282.69114,855.56069 -265.10025,862.77086 C -251.02752,872.38534 -229.91845,877.19257 -208.80936,872.38534 C -154.86393,862.77086 -114.99122,802.6852 -149.00031,745.00246"
         id="path4208"
         style="fill:#9c9c6d;fill-opacity:1;fill-rule:nonzero;stroke:none" />
      <path
         d="M -96.931226,875.51052 C -96.931226,875.51052 -89.894866,894.7381 -82.858506,913.96568 C -73.476706,938.00049 -62.922156,962.03531 -62.922156,962.03531 C -84.031236,966.84255 -119.21304,990.87599 -119.21304,990.87599 C -126.2494,976.45565 -130.94031,954.82514 -130.94031,954.82514 C -147.35849,901.94827 -96.931226,875.51052 -96.931226,875.51052 z M -59.403976,743.32041 C -59.403976,743.32041 -57.058526,721.68853 -42.985796,714.47836 C -42.985796,714.47836 -31.258546,704.86525 -21.876726,724.09283 C -21.876726,724.09283 -10.149456,743.32041 -10.149456,776.96833 C -10.149456,776.96833 -8.9767257,805.81038 -25.394906,820.23072 L -40.640346,829.8452 C -40.640346,829.8452 -59.403976,791.39004 -59.403976,743.32041 z M -28.913086,1041.3486 C -28.913086,1041.3486 -21.876726,1055.7703 -39.467616,1070.1906 C -39.467616,1070.1906 -59.403976,1084.611 -81.685776,1062.9805 C -81.685776,1062.9805 -99.276686,1043.7529 -114.52214,1002.8934 C -114.52214,1002.8934 -85.203956,978.85858 -58.231246,974.05272 L -28.913086,1041.3486 z M 108.29594,1031.7354 C 108.29594,1031.7354 118.85048,1070.1906 88.359584,1077.4008 C 88.359584,1077.4008 66.077774,1084.611 48.486874,1048.5601 L 13.305074,966.84255 C 13.305074,966.84255 93.050484,966.84255 108.29594,1031.7354 z M 149.34137,1139.8908 C 109.46866,1113.453 49.659604,1132.6806 49.659604,1132.6806 L -75.822156,1171.1358 C -75.822156,1171.1358 -130.94031,1185.5561 -163.77665,1195.1706 C -179.0221,1199.9778 -189.57665,1202.3807 -189.57665,1202.3807 C -238.83116,1211.9952 -252.90388,1183.1532 -252.90388,1183.1532 C -269.32206,1151.9082 -242.34934,1132.6806 -242.34934,1132.6806 C -213.03117,1115.856 -195.44028,1137.4878 -195.44028,1137.4878 C -189.57665,1147.1009 -191.9221,1159.1183 -191.9221,1159.1183 L -150.87667,1144.698 C -179.0221,1111.0501 -163.77665,1082.208 -163.77665,1082.208 C -128.59485,1130.2777 -87.549416,1123.0661 -87.549416,1123.0661 C -30.085816,1120.6632 -20.703996,1060.5775 -20.703996,1060.5775 C -11.322186,1082.208 2.7505443,1096.6284 2.7505443,1096.6284 C 25.032344,1125.4704 62.559594,1120.6632 62.559594,1120.6632 C 95.395944,1118.2603 110.64139,1089.4182 110.64139,1089.4182 C 132.92319,1053.366 112.98684,1012.5079 112.98684,1012.5079 C 82.495954,952.42083 9.7868943,954.82514 9.7868943,954.82514 L -6.6312757,916.36998 C -0.76763568,882.72069 23.859614,880.31776 23.859614,880.31776 C 34.414164,880.31776 33.241434,885.125 33.241434,885.125 C 20.341434,897.14103 26.205074,913.96568 26.205074,913.96568 C 37.932344,947.61497 70.768684,935.59756 70.768684,935.59756 C 103.60503,923.58015 95.395944,892.33517 95.395944,892.33517 C 83.668684,856.28294 46.141414,856.28294 46.141414,856.28294 C 2.7505443,861.09018 -12.494906,901.94827 -12.494906,901.94827 L -35.949446,841.8626 C -12.494906,825.03796 -0.76763568,813.02055 -0.76763568,813.02055 C 29.723254,779.37263 19.168714,740.91748 19.168714,740.91748 C 9.7868943,695.25078 -23.049456,700.05802 -23.049456,700.05802 C -66.440336,702.46095 -93.413046,750.53058 -93.413046,750.53058 C -108.65851,784.1785 -108.65851,810.61762 -108.65851,810.61762 C -108.65851,841.8626 -100.44942,865.89605 -100.44942,865.89605 C -136.80394,889.93086 -157.91302,911.56274 -157.91302,911.56274 C -195.44028,947.61497 -190.74937,998.08753 -190.74937,998.08753 C -188.40392,1041.3486 -171.98574,1070.1906 -171.98574,1070.1906 C -180.19483,1084.611 -183.71301,1113.453 -183.71301,1113.453 C -211.85845,1101.4356 -237.65844,1115.856 -237.65844,1115.856 C -281.04932,1139.8908 -265.80388,1187.9604 -265.80388,1187.9604 C -256.42206,1226.4156 -218.89481,1240.8359 -218.89481,1240.8359 C -181.36756,1257.6605 -141.49485,1245.6431 -141.49485,1245.6431 L -69.958526,1224.0126 L 42.623254,1190.3633 C 91.877764,1173.5401 108.29594,1173.5401 108.29594,1173.5401 C 163.4141,1166.3285 168.10499,1197.5735 168.10499,1197.5735 C 172.7959,1219.2054 148.16864,1231.2228 148.16864,1231.2228 C 122.36866,1243.2402 107.12321,1236.03 107.12321,1236.03 C 94.223214,1226.4156 98.914124,1219.2054 98.914124,1219.2054 C 101.25957,1214.3981 98.914124,1209.5909 98.914124,1209.5909 C 93.050484,1197.5735 78.977774,1202.3807 78.977774,1202.3807 C 55.523234,1209.5909 66.077774,1231.2228 66.077774,1231.2228 C 78.977774,1252.8533 112.98684,1252.8533 112.98684,1252.8533 C 175.14135,1248.0461 182.17772,1202.3807 182.17772,1202.3807 C 189.21408,1163.9256 149.34137,1139.8908 149.34137,1139.8908"
         id="path4212"
         style="fill:#9c9c6d;fill-opacity:1;fill-rule:nonzero;stroke:none" />
    </g>
  </g>
</svg>
