<svg id="Logo" xmlns="http://www.w3.org/2000/svg" viewBox="0 0 701.11 56.92"><defs><style>.cls-1{fill:#004f64;}</style></defs><rect class="cls-1" y="26.67" width="41.88" height="4.15"/><rect class="cls-1" x="659.25" y="26.67" width="41.86" height="4.15"/><rect class="cls-1" x="70.32" y="0.94" width="11.95" height="55.04"/><polygon class="cls-1" points="98.78 0.94 110.73 0.94 127.32 24.45 143.99 0.94 155.78 0.94 155.78 55.98 144.46 55.98 144.46 17.93 127.25 41.67 110.11 17.93 110.11 55.98 98.78 55.98 98.78 0.94"/><polygon class="cls-1" points="172.39 0.94 184.34 0.94 200.93 24.45 217.59 0.94 229.39 0.94 229.39 55.98 218.07 55.98 218.07 17.93 200.85 41.67 183.71 17.93 183.71 55.98 172.39 55.98 172.39 0.94"/><path class="cls-1" d="M327.43,101.91c9.67,0,16.5-7.32,16.5-18.56,0-11-6.76-18.32-16.5-18.32S311,72.34,311,83.35c0,11.24,6.84,18.56,16.44,18.56m0-46.86c16.74,0,28.54,11.79,28.54,28.3C356,100,344.17,112,327.43,112s-28.54-12-28.54-28.62c0-16.51,11.87-28.3,28.54-28.3" transform="translate(-55.02 -55.05)"/><polygon class="cls-1" points="315.42 0.94 354.89 0.94 354.89 11.32 327.37 11.32 327.37 24.21 351.11 24.21 351.11 33.96 327.37 33.96 327.37 55.98 315.42 55.98 315.42 0.94"/><rect class="cls-1" x="370.07" y="0.94" width="11.95" height="55.04"/><polygon class="cls-1" points="398.54 0.94 409.86 0.94 434.38 37.19 434.38 0.94 445.63 0.94 445.63 55.98 434.38 55.98 409.86 19.89 409.86 55.98 398.54 55.98 398.54 0.94"/><path class="cls-1" d="M532.5,91.53h14.86L540,69.2h-.16ZM533.21,56h13.52l19.89,55H553.89l-3.46-10.3H529.51L526.13,111H513.32Z" transform="translate(-55.02 -55.05)"/><polygon class="cls-1" points="524.27 0.94 535.59 0.94 560.12 37.19 560.12 0.94 571.36 0.94 571.36 55.98 560.12 55.98 535.59 19.89 535.59 55.98 524.27 55.98 524.27 0.94"/><polygon class="cls-1" points="586.31 47.09 614.14 11.56 586.31 11.56 586.31 0.94 629.79 0.94 629.79 9.83 602.04 45.29 630.81 45.29 630.81 55.98 586.31 55.98 586.31 47.09"/></svg>