<svg class="svg--lenzing-logo" xmlns:dc="http://purl.org/dc/elements/1.1/" xmlns:cc="http://creativecommons.org/ns#" xmlns:rdf="http://www.w3.org/1999/02/22-rdf-syntax-ns#" xmlns:svg="http://www.w3.org/2000/svg" xmlns="http://www.w3.org/2000/svg" xmlns:sodipodi="http://sodipodi.sourceforge.net/DTD/sodipodi-0.dtd" xmlns:inkscape="http://www.inkscape.org/namespaces/inkscape" version="1.1" sodipodi:docname="logo.svg" inkscape:version="0.92.2 (5c3e80d, 2017-08-06)" viewBox="-0.2 0.15 159.02 72.02">
  <metadata>
    <rdf:RDF>
      <cc:Work rdf:about="">
        <dc:format>image/svg+xml</dc:format>
        <dc:type rdf:resource="http://purl.org/dc/dcmitype/StillImage"/>
        <dc:title>9EDCF3F7-2A5F-457F-ACF1-3ABA27B47C22</dc:title>
      </cc:Work>
    </rdf:RDF>
  </metadata>
  <sodipodi:namedview pagecolor="#ffffff" bordercolor="#666666" borderopacity="1" objecttolerance="10" gridtolerance="10" guidetolerance="10" inkscape:pageopacity="0" inkscape:pageshadow="2" inkscape:window-width="1920" inkscape:window-height="1001" showgrid="false" inkscape:zoom="1.7324116" inkscape:cx="189.74373" inkscape:cy="8.6302865" inkscape:window-x="-9" inkscape:window-y="-9" inkscape:window-maximized="1" inkscape:current-layer="svg34"/>
  <title>Logo Lenzing</title>
  <g style="fill: none; fill-rule: evenodd; stroke: none; stroke-width: 1px; --darkreader-inline-fill: none; --darkreader-inline-stroke: none;" transform="translate(-61.186383,-1.8455399)" data-darkreader-inline-fill="" data-darkreader-inline-stroke="">
    <g>
      <g transform="translate(61,2)">
        <g>
          <g>
            <path d="m 156.16071,12.21298 v 18.562163 c 0,5.707613 -3.01905,10.909067 -10.67019,10.909067 -5.58263,0 -9.30558,-3.552302 -9.88527,-7.526096 l 4.96334,-1.35282 c 0.37266,2.282308 2.15132,3.931461 4.75631,3.931461 3.47452,0 5.41881,-1.776152 5.41881,-5.792279 v -1.522153 c -0.82813,1.35282 -2.73101,2.663307 -5.66725,2.663307 -5.41701,0 -9.47121,-4.270125 -9.47121,-10.104737 0,-5.497787 3.88858,-10.148911 9.47121,-10.148911 3.22608,0 5.08756,1.437486 5.78966,2.83264 V 12.21298 Z M 55.145857,25.658355 c -0.662498,1.860818 -2.068508,3.171305 -4.63209,3.171305 -2.729207,0 -5.004746,-1.987818 -5.128965,-4.735791 h 14.558771 c 0,-0.08467 0.08281,-0.929488 0.08281,-1.733818 0,-6.681274 -3.764361,-10.782068 -10.050898,-10.782068 -5.209977,0 -10.007692,4.312459 -10.007692,10.9514 0,7.01994 4.921934,11.120733 10.504566,11.120733 5.004746,0 8.230827,-3.001972 9.264181,-6.596608 z M 101.26153,16.906438 91.334852,28.111837 H 101.42716 V 33.01696 H 84.594647 V 28.069503 L 94.229683,17.07577 H 84.841284 V 12.21298 H 101.26153 Z M 68.435438,12.21298 v 2.578641 c 1.240385,-2.15715 3.681549,-3.128971 5.872476,-3.128971 5.046152,0 7.363097,3.679302 7.363097,8.24576 v 13.10855 h -5.50162 V 20.880231 c 0,-2.324641 -1.116166,-4.143126 -3.762561,-4.143126 -2.399757,0 -3.805767,1.903151 -3.805767,4.312459 V 33.01696 h -5.49982 V 12.21298 Z M 19.875,3.0358911 h 5.708651 V 27.434506 H 38.651799 V 33.01696 H 19.875 Z m 85.28771,9.1770889 h 5.49982 v 20.80398 h -5.49982 z m 14.33374,0 v 2.578641 c 1.24038,-2.15715 3.67975,-3.128971 5.87248,-3.128971 5.04615,0 7.36129,3.679302 7.36129,8.24576 V 33.01696 H 127.2304 V 20.880231 c 0,-2.324641 -1.11796,-4.143126 -3.76436,-4.143126 -2.39796,0 -3.80397,1.903151 -3.80397,4.312459 V 33.01696 h -5.50162 V 12.21298 Z m 26.53235,15.052194 c -2.85522,0 -4.88052,-2.030151 -4.88052,-5.284281 0,-3.213638 2.14952,-5.243788 4.88052,-5.243788 2.6464,0 4.79772,2.03015 4.79772,5.243788 0,3.211797 -1.9857,5.284281 -4.79772,5.284281 z M 54.607577,20.247075 c -0.08281,-2.072484 -1.406009,-4.102634 -4.549278,-4.102634 -2.853425,0 -4.42506,2.199483 -4.549278,4.102634 z M 104.50021,5.4047066 c 0,1.8608177 1.53023,3.4253035 3.39171,3.4253035 1.90288,0 3.39171,-1.5644858 3.39171,-3.4253035 0,-1.945484 -1.48883,-3.5099698 -3.39171,-3.5099698 -1.86148,0 -3.39171,1.5644858 -3.39171,3.5099698 z" inkscape:connector-curvature="0" style="fill: rgb(0, 0, 0); --darkreader-inline-fill: #e8e6e3;" data-darkreader-inline-fill=""/>
            <path d="m 4.3951791,0.38059772 c 0.6782572,0.57636843 0.9715091,0.67121388 1.2881491,1.55582998 0.1169409,0.3228393 0.11874,0.6766857 0.1763109,1.0159406 0,7.6532977 -0.025187,15.3047707 0.0018,22.9580677 0.0054,0.663918 0.043178,1.326012 0.11874,1.986282 0.1493245,1.320541 0.4443754,2.624665 0.8743581,3.879544 0.5055446,1.4774 1.2017928,2.887314 2.0599591,4.18779 0.85097,1.291358 1.8638587,2.475102 3.0044817,3.514753 1.799091,1.639732 3.91842,2.916498 6.205065,3.722684 1.237774,0.435924 2.524124,0.735052 3.826666,0.88644 0.690851,0.08025 1.3853,0.118557 2.079749,0.120381 H 156.07114 c 0.87076,0.15686 1.1712,0.0912 1.88184,0.694925 0.26087,0.222522 0.48576,0.492467 0.65487,0.791595 0.16912,0.297304 0.28966,0.629263 0.34723,0.968517 0.12054,0.68763 -0.004,1.397147 -0.34723,2.000874 -0.16911,0.297304 -0.394,0.569073 -0.65487,0.789771 -0.71064,0.605552 -1.01108,0.539889 -1.88184,0.694925 -44.06694,0 -88.133869,0.138621 -132.199003,0 -0.25727,-0.0018 -0.51454,-0.0073 -0.770011,-0.01641 -0.609892,-0.02371 -1.217984,-0.07113 -1.822479,-0.142268 C 19.550721,49.787775 17.843384,49.391978 16.199014,48.811961 14.774135,48.310375 13.396031,47.670168 12.088092,46.904109 10.62723,46.0505 9.2563227,45.040031 8.0023564,43.896414 6.5001154,42.528451 5.16519,40.968973 4.0425573,39.267227 2.9073309,37.547242 1.9897945,35.68134 1.3187336,33.726065 0.74842182,32.058974 0.35801909,30.329869 0.15832,28.577052 0.08815545,27.962381 0.04137909,27.345885 0.01799091,26.727566 0.00719636,26.417494 0.00179909,26.107423 0,25.797351 V 2.9523683 C 0.05937,2.6131134 0.06116909,2.259267 0.17631091,1.9364277 0.29325182,1.6135884 0.46776364,1.3071647 0.68545363,1.0426918 1.12803,0.50827427 1.7433191,0.14895598 2.4215764,0.02675128 c 0.3346309,-0.06019038 0.6782572,0 1.0182854,0 0.3184391,0.11855679 0.6368782,0.23528964 0.9553173,0.35384644 z" inkscape:connector-curvature="0" style="fill: rgb(0, 161, 56); fill-rule: nonzero; --darkreader-inline-fill: #5bff94;" data-darkreader-inline-fill=""/>
            <path d="m 113.23447,67.375138 1.85917,-4.387454 h 1.30537 L 112.35703,72 h -1.32874 l 1.5481,-3.356844 -2.67187,-5.655472 h 1.39347 z m 41.84023,-0.211644 c -0.23194,0.714066 -0.73539,1.282742 -1.74229,1.282742 -1.04466,0 -1.84658,-0.793202 -1.87175,-1.930554 h 4.67308 c 0.0126,-0.07914 0.027,-0.237408 0.027,-0.39568 0,-1.982084 -1.07162,-3.329239 -2.98293,-3.329239 -1.56249,0 -2.96856,1.360038 -2.96856,3.355004 0,2.155079 1.45821,3.397332 3.12319,3.397332 1.44562,0 2.43993,-0.88706 2.78875,-2.009689 l -1.04646,-0.369916 z m -57.524468,0 c -0.231946,0.714066 -0.735395,1.282742 -1.742294,1.282742 -1.046455,0 -1.84658,-0.793202 -1.871752,-1.930554 h 4.673088 c 0.01259,-0.07914 0.02517,-0.237408 0.02517,-0.39568 0,-1.982084 -1.071627,-3.329239 -2.982937,-3.329239 -1.560692,0 -2.968552,1.360038 -2.968552,3.355004 0,2.155079 1.458205,3.397332 3.124981,3.397332 1.445619,0 2.439931,-0.88706 2.786951,-2.009689 L 97.55023,67.163494 Z m 42.847128,-4.17581 v 3.818778 c 0,0.872337 0.38658,1.639774 1.40786,1.639774 0.97993,0 1.47079,-0.660695 1.47079,-1.626892 v -3.83166 h 1.21367 v 5.180655 c 0,0.502423 0.0396,0.951474 0.0647,1.176 h -1.16153 c -0.027,-0.14539 -0.0521,-0.502423 -0.0521,-0.767436 -0.33623,0.660694 -1.11119,0.966196 -1.834,0.966196 -1.44561,0 -2.32305,-1.111586 -2.32305,-2.550759 v -4.004656 h 1.21367 z M 61.350434,62.790763 c -1.857368,0 -3.175327,1.439174 -3.175327,3.367887 0,1.943436 1.317959,3.384449 3.175327,3.384449 1.859166,0 3.177124,-1.441013 3.177124,-3.384449 0,-1.928713 -1.317958,-3.367887 -3.177124,-3.367887 z m 15.892813,6.553576 h -1.188499 c -0.02517,-0.158272 -0.06473,-0.397521 -0.06473,-0.859455 -0.269705,0.449051 -0.890027,1.058215 -1.999413,1.058215 -1.265815,0 -2.078526,-0.899943 -2.078526,-1.902947 0,-1.137352 0.812711,-1.770441 1.884338,-1.930554 l 1.677565,-0.250291 c 0.373991,-0.05337 0.478277,-0.250291 0.478277,-0.476657 0,-0.620206 -0.400962,-1.135511 -1.343131,-1.135511 -0.852268,0 -1.328746,0.54107 -1.406062,1.280901 L 72.03974,64.851984 c 0.129458,-1.216488 1.201086,-2.061221 2.544217,-2.061221 1.859166,0 2.581975,1.082141 2.581975,2.324394 v 3.185689 c 0,0.553953 0.05214,0.885221 0.07731,1.043493 z m 55.744413,0 h -1.1885 c -0.0252,-0.158272 -0.0647,-0.397521 -0.0647,-0.859455 -0.27151,0.449051 -0.89003,1.058215 -2.00122,1.058215 -1.26401,0 -2.07852,-0.899943 -2.07852,-1.902947 0,-1.137352 0.81451,-1.770441 1.88614,-1.930554 l 1.67756,-0.250291 c 0.37399,-0.05337 0.47828,-0.250291 0.47828,-0.476657 0,-0.620206 -0.40096,-1.135511 -1.34313,-1.135511 -0.85227,0 -1.33055,0.54107 -1.40786,1.280901 l -1.16153,-0.276056 c 0.12946,-1.216488 1.20108,-2.061221 2.54421,-2.061221 1.85917,0 2.58198,1.082141 2.58198,2.324394 v 3.185689 c 0,0.553953 0.0503,0.885221 0.0773,1.043493 z M 104.61111,59.77807 v 4.109557 c 0.29667,-0.568676 1.01948,-1.083981 2.05335,-1.083981 1.88434,0 2.85348,1.479662 2.85348,3.329239 0,1.890065 -1.04645,3.382609 -2.89304,3.382609 -0.91519,0 -1.62542,-0.408563 -2.01379,-1.096864 v 0.925709 h -1.19929 V 59.77807 Z m -25.044804,1.201765 h 1.111185 v 2.007849 h 1.341332 v 1.124469 h -1.341332 v 3.303473 c 0,0.579718 0.231946,0.870497 0.864853,0.870497 0.154631,0 0.373991,-0.02577 0.476479,-0.05153 v 1.056375 c -0.102488,0.04049 -0.411749,0.119624 -0.825297,0.119624 -1.059041,0 -1.729708,-0.660694 -1.729708,-1.810929 v -3.48751 h -1.1885 v -1.124469 h 0.336233 c 0.670666,0 0.954755,-0.421446 0.954755,-0.97724 z m 55.744414,0 h 1.11119 v 2.007849 h 1.34133 v 1.124469 h -1.34133 v 3.303473 c 0,0.579718 0.23194,0.870497 0.86485,0.870497 0.15463,0 0.37399,-0.02577 0.47648,-0.05153 v 1.056375 c -0.10249,0.04049 -0.41355,0.119624 -0.8253,0.119624 -1.05904,0 -1.7297,-0.660694 -1.7297,-1.810929 v -3.48751 h -1.1885 v -1.124469 h 0.33623 c 0.67066,0 0.95475,-0.421446 0.95475,-0.97724 z M 40.696429,59.97499 h 1.290987 v 9.369349 H 40.696429 Z M 147.4852,62.987684 v 1.109746 c 0.45131,-0.977239 1.22626,-1.214648 1.85917,-1.214648 0.16722,0 0.33443,0.02576 0.39916,0.03865 v 1.321389 c -0.1798,-0.02576 -0.3614,-0.03865 -0.52862,-0.03865 -1.01948,0 -1.70453,0.553953 -1.70453,1.954479 v 3.185689 h -1.21368 v -6.356655 z m -102.115684,0 v 0.912826 c 0.451307,-0.793202 1.186702,-1.096864 1.909511,-1.096864 1.485176,0 2.220571,1.096864 2.220571,2.510272 v 4.030421 h -1.213672 v -3.818778 c 0,-0.885221 -0.361405,-1.599286 -1.445619,-1.599286 -0.954755,0 -1.445618,0.780319 -1.445618,1.744675 v 3.673389 h -1.213673 v -6.356655 z m 7.255064,0 v 0.912826 c 0.451306,-0.793202 1.186701,-1.096864 1.909511,-1.096864 1.485175,0 2.22057,1.096864 2.22057,2.510272 v 4.030421 h -1.213672 v -3.818778 c 0,-0.885221 -0.361405,-1.599286 -1.445618,-1.599286 -0.954756,0 -1.445619,0.780319 -1.445619,1.744675 v 3.673389 H 51.43608 v -6.356655 z m 36.50906,4.902759 1.780052,-4.902759 h 1.305372 l -2.479487,6.356655 h -1.226259 l -2.517246,-6.356655 h 1.368303 z m -5.500183,-4.902759 h 1.201086 v 6.356655 h -1.201086 z m 38.341253,0 v 0.912826 c 0.45311,-0.793202 1.1885,-1.096864 1.91131,-1.096864 1.48518,0 2.22057,1.096864 2.22057,2.510272 v 4.030421 h -1.21367 v -3.818778 c 0,-0.885221 -0.3614,-1.599286 -1.44562,-1.599286 -0.95655,0 -1.44562,0.780319 -1.44562,1.744675 v 3.673389 h -1.21367 v -6.356655 z m -53.858278,4.902759 1.781851,-4.902759 h 1.303574 l -2.479488,6.356655 h -1.226258 l -2.517247,-6.356655 h 1.368303 z m 61.785808,0.607323 c -0.62032,0 -1.0069,-0.449051 -1.0069,-0.923868 0,-0.568676 0.38658,-0.872338 0.90261,-0.951474 l 1.89873,-0.290779 v 0.290779 c 0,1.387643 -0.80013,1.875342 -1.79444,1.875342 z m -55.744417,0 c -0.620321,0 -1.006899,-0.449051 -1.006899,-0.923868 0,-0.568676 0.386578,-0.872338 0.902613,-0.951474 l 1.898723,-0.290779 v 0.290779 c 0,1.387643 -0.800125,1.875342 -1.794437,1.875342 z m -12.807389,-0.06625 c -1.032071,0 -1.936482,-0.791361 -1.936482,-2.272863 0,-1.464939 0.904411,-2.25814 1.936482,-2.25814 1.033869,0 1.936481,0.793201 1.936481,2.25814 0,1.481502 -0.902612,2.272863 -1.936481,2.272863 z M 108.2773,66.132885 c 0,1.37476 -0.72281,2.272863 -1.8322,2.272863 -1.07163,0 -1.84658,-0.898103 -1.84658,-2.272863 0,-1.374761 0.77495,-2.232375 1.84658,-2.232375 1.12197,0 1.8322,0.857614 1.8322,2.232375 z M 97.368631,65.512678 c -0.02517,-0.912826 -0.605937,-1.625051 -1.702737,-1.625051 -1.021283,0 -1.639806,0.806084 -1.691949,1.625051 z m 57.526269,0 c -0.0252,-0.912826 -0.60594,-1.625051 -1.70454,-1.625051 -1.01948,0 -1.6398,0.806084 -1.69015,1.625051 z M 83.361954,60.584154 c 0,0.487699 0.388375,0.88522 0.864854,0.88522 0.490863,0 0.87744,-0.397521 0.87744,-0.88522 0,-0.502423 -0.386577,-0.899944 -0.87744,-0.899944 -0.476479,0 -0.864854,0.397521 -0.864854,0.899944 z" inkscape:connector-curvature="0" style="fill: rgb(28, 28, 28); --darkreader-inline-fill: #d6d3cd;" data-darkreader-inline-fill=""/>
          </g>
        </g>
      </g>
    </g>
  </g>
</svg>