<svg class="logo" xmlns="http://www.w3.org/2000/svg" viewBox="0 0 419.528 419.528" aria-label="Mayr-Melnhof Karton AG"><path fill="#19764c" d="M209.764 419.528c115.85 0 209.764-93.914 209.764-209.764S325.614 0 209.764 0 0 93.914 0 209.764s93.914 209.764 209.764 209.764" style="--darkreader-inline-fill:#145e3d"/><path fill="#fff" style="--darkreader-inline-fill:#181a1b" d="m163.256 143.776-36.975 105.115-37.07-104.869-.087-.246H71.29L51.92 268.895h17.098l14.537-94.547 33.294 94.3.088.247h18.324l33.381-94.184 14.309 93.87.047.314h17.098l-19.368-125.119h-17.472zM348.485 143.776h-17.472l-36.975 105.115-37.068-104.869-.088-.246h-17.835l-19.302 124.693-.066.426h17.097l14.537-94.547 33.295 94.3.087.247h18.323l33.381-94.184 14.31 93.87.047.314h17.098l-19.369-125.119z"/></svg>