<svg enable-background="new -0.495 -0.861 60 44" height="270.80128" viewBox="-.495 -.861 60 44" width="369.274473" xmlns="http://www.w3.org/2000/svg"><path d="m.015 22.145h59.435v-.897h-59.435" fill="#74c15a"/><path clip-rule="evenodd" d="m.679 33.871c0 4.733 3.016 8.436 8.063 8.436 5.045 0 8.062-3.702 8.062-8.436s-3.017-8.438-8.062-8.438c-5.048.001-8.063 3.704-8.063 8.438m2.707 0c0-3.177 1.583-5.981 5.355-5.981 3.771 0 5.354 2.805 5.354 5.981 0 3.094-1.583 5.98-5.354 5.98-3.772.001-5.355-2.886-5.355-5.98z" fill-rule="evenodd"/><path d="m34.483 42.115h2.397v-16.194h-3.615l-4.411 12.137-4.443-12.137h-3.601v16.194h2.447l-.028-12.948 4.76 12.948h1.714l4.78-12.948z"/><path d="m54.994 25.921-5.716 12.32-5.704-12.32h-3.005l7.489 16.194h2.251l7.637-16.194z"/><g fill="#00457c"><path d="m51.771.433-4.021 6.97h1.041l4.021-6.97h6.637l-10.267 17.629-10.24-17.629z"/><path d="m27.794.433-4.02 6.97h1.041l4.02-6.97h4.99l-4.02 6.97h1.04l4.02-6.97h2.647v17.629h-17.425v-17.629z"/><path d="m12.349.549c3.572 1.272 6.132 4.701 6.132 8.69 0 5.091-4.149 9.241-9.24 9.241s-9.241-4.15-9.241-9.241c0-5.09 4.149-9.239 9.24-9.239.767 0 1.504.13 2.241.288l-4.105 7.115h1.04z"/></g></svg>