<?xml version="1.0" encoding="UTF-8" standalone="no"?>
<!-- Created with Inkscape (http://www.inkscape.org/) -->
<svg
   xmlns:svg="http://www.w3.org/2000/svg"
   xmlns="http://www.w3.org/2000/svg"
   version="1.0"
   width="124.35"
   height="27.219999"
   id="svg2"
   xml:space="preserve"><defs
     id="defs5"><clipPath
       id="clipPath17"><path
         d="M 587.834,160.616 L 391.66,160.616 L 391.66,-16.746 L 587.834,-16.746 L 587.834,160.616 z"
         id="path19" /></clipPath><clipPath
       id="clipPath23"><path
         d="M 439.37,83.558 L 538.582,83.558 L 538.582,49.506 L 439.37,49.506 L 439.37,83.558 z"
         id="path25" /></clipPath><clipPath
       id="clipPath29"><path
         d="M 0,765.354 L 595.275,765.354 L 595.275,0 L 0,0 L 0,765.354 z"
         id="path31" /></clipPath><clipPath
       id="clipPath35"><path
         d="M 0.059998,765.42 L 595.38,765.42 L 595.38,0.06 L 0.059998,0.06 L 0.059998,765.42 z"
         id="path37" /></clipPath><clipPath
       id="clipPath71"><path
         d="M 0,765.354 L 595.275,765.354 L 595.275,0 L 0,0 L 0,765.354 z"
         id="path73" /></clipPath><clipPath
       id="clipPath77"><path
         d="M 0.059998,765.42 L 595.38,765.42 L 595.38,0.06 L 0.059998,0.06 L 0.059998,765.42 z"
         id="path79" /></clipPath><clipPath
       id="clipPath95"><path
         d="M 56.692,526.181 L 1133.858,526.181 L 1133.858,191.338 L 56.692,191.338 L 56.692,526.181 z"
         id="path97" /></clipPath><clipPath
       id="clipPath101"><path
         d="M 0,765.354 L 595.275,765.354 L 595.275,0 L 0,0 L 0,765.354 z"
         id="path103" /></clipPath><clipPath
       id="clipPath107"><path
         d="M 0.059998,765.42 L 595.38,765.42 L 595.38,0.06 L 0.059998,0.06 L 0.059998,765.42 z"
         id="path109" /></clipPath><clipPath
       id="clipPath119"><path
         d="M 0,765.354 L 595.275,765.354 L 595.275,0 L 0,0 L 0,765.354 z"
         id="path121" /></clipPath><clipPath
       id="clipPath125"><path
         d="M 0.059998,765.42 L 595.38,765.42 L 595.38,0.06 L 0.059998,0.06 L 0.059998,765.42 z"
         id="path127" /></clipPath></defs><g
     transform="matrix(1.25,0,0,-1.25,-550.88,95.6325)"
     id="g11"><path
       d="M 455.84753,74.706291 L 455.70753,74.312291 C 455.30553,73.106291 454.71753,71.474291 453.96853,69.362291 C 453.62153,68.399291 453.46153,67.945291 453.27353,67.435291 L 451.82953,63.559291 C 451.21353,61.846291 451.03053,61.295291 450.73653,59.880291 L 450.56653,59.880291 C 450.21853,61.620291 450.16853,61.821291 449.55253,63.640291 L 448.24253,67.465291 L 447.17353,70.726291 C 447.01253,71.181291 446.87953,71.584291 446.69153,72.145291 C 446.45053,72.869291 446.23653,73.591291 445.99553,74.314291 L 445.87953,74.706291 L 441.33153,74.706291 L 441.58753,73.938291 C 442.71053,70.542291 443.45853,68.378291 444.71553,64.981291 C 445.91853,61.666291 446.69353,59.662291 448.03153,56.425291 L 448.27753,55.786291 L 452.67853,55.786291 L 452.92553,56.403291 C 454.34253,59.612291 455.35853,62.017291 456.48053,64.851291 C 457.81853,68.166291 459.02053,71.321291 459.98353,74.048291 L 460.23253,74.706291 L 455.84753,74.706291"
       id="path41"
       style="fill:#004e96;fill-opacity:1;fill-rule:nonzero;stroke:none" /><path
       d="M 462.05253,63.848291 L 462.06753,63.948291 C 462.28253,65.399291 463.29053,66.326291 464.72053,66.322291 C 466.09753,66.330291 466.92653,65.467291 467.05253,63.944291 L 467.06153,63.848291 L 462.05253,63.848291 z M 464.72053,69.037291 C 460.77853,69.032291 458.20853,66.359291 458.20153,62.197291 C 458.21053,57.956291 460.71753,55.501291 465.06853,55.491291 C 466.80253,55.491291 468.40353,55.881291 469.95553,56.687291 L 469.95553,59.658291 C 468.71253,58.876291 467.24553,58.474291 465.65653,58.474291 C 463.47153,58.465291 462.14653,59.385291 462.01253,61.068291 L 462.00653,61.161291 L 470.60453,61.161291 L 470.62453,61.374291 C 470.65053,61.825291 470.65053,62.197291 470.65053,62.411291 C 470.64053,66.662291 468.50253,69.029291 464.72053,69.037291"
       id="path45"
       style="fill:#004e96;fill-opacity:1;fill-rule:nonzero;stroke:none" /><path
       d="M 490.82653,59.658291 C 490.15853,59.057291 489.15853,58.767291 487.82353,58.767291 C 487.55653,58.767291 487.39553,58.767291 487.07553,58.767291 L 486.98753,58.767291 L 486.98753,65.547291 L 487.04553,65.568291 C 487.64153,65.784291 488.13653,65.867291 488.73353,65.867291 C 489.70053,65.868291 490.47853,65.544291 491.00753,64.938291 C 491.53753,64.333291 491.81453,63.454291 491.81453,62.357291 C 491.81553,61.166291 491.49453,60.260291 490.82653,59.658291 z M 489.85653,69.010291 C 488.92853,69.009291 488.16853,68.878291 487.10453,68.480291 L 486.98753,68.436291 L 486.98753,75.668291 L 483.04353,75.668291 L 483.04353,55.987291 C 484.78953,55.728291 485.86853,55.625291 487.20853,55.625291 C 492.93753,55.636291 495.83053,57.992291 495.83953,62.571291 C 495.83353,66.494291 493.47453,69.004291 489.85653,69.010291"
       id="path49"
       style="fill:#004e96;fill-opacity:1;fill-rule:nonzero;stroke:none" /><path
       d="M 499.18153,56.913291 C 500.11853,56.052291 501.61853,55.625291 503.82953,55.625291 C 505.50853,55.626291 507.07953,55.785291 509.29753,56.186291 L 509.73253,56.255291 L 509.73253,68.716291 L 505.78853,68.716291 L 505.78853,59.158291 L 505.71853,59.144291 C 505.17953,59.036291 504.58653,58.956291 504.01653,58.956291 C 503.19353,58.956291 502.63753,59.088291 502.28553,59.461291 C 501.93453,59.834291 501.81853,60.413291 501.81653,61.261291 L 501.81653,68.716291 L 497.87253,68.716291 L 497.87253,61.315291 C 497.87453,58.885291 498.21553,57.802291 499.18153,56.913291"
       id="path53"
       style="fill:#004e96;fill-opacity:1;fill-rule:nonzero;stroke:none" /><path
       d="M 518.96953,69.010291 C 516.96353,69.010291 514.98453,68.723291 512.58453,68.093291 L 512.58453,55.786291 L 516.52953,55.786291 L 516.52953,65.551291 L 516.59253,65.569291 C 517.42553,65.812291 517.94653,65.867291 518.51453,65.867291 C 519.25953,65.867291 519.79053,65.719291 520.13253,65.348291 C 520.47353,64.977291 520.60653,64.411291 520.60753,63.614291 L 520.60653,55.786291 L 524.55153,55.786291 L 524.55153,63.774291 C 524.55053,65.831291 524.28853,66.755291 523.45353,67.619291 C 522.56953,68.530291 521.06953,69.010291 518.96953,69.010291"
       id="path57"
       style="fill:#004e96;fill-opacity:1;fill-rule:nonzero;stroke:none" /><path
       d="M 535.47253,65.629291 L 535.47253,58.885291 L 535.39753,58.875291 C 534.80653,58.795291 534.42653,58.767291 533.96753,58.767291 C 532.89553,58.767291 532.05253,59.074291 531.48153,59.670291 C 530.90953,60.266291 530.61853,61.139291 530.61853,62.250291 C 530.61853,63.388291 530.92353,64.295291 531.50453,64.917291 C 532.08453,65.539291 532.93553,65.868291 533.99453,65.868291 C 534.50953,65.868291 534.92253,65.812291 535.41253,65.649291 L 535.47253,65.629291 z M 533.59353,69.010291 C 529.32653,69.004291 526.59953,66.328291 526.59253,62.170291 C 526.60353,57.854291 529.15153,55.638291 534.15553,55.625291 C 535.81553,55.625291 537.34353,55.781291 539.41753,56.172291 L 539.41753,75.669291 L 535.47253,75.669291 L 535.47253,68.770291 L 535.36353,68.799291 C 534.75553,68.957291 534.25753,69.009291 533.59353,69.010291"
       id="path61"
       style="fill:#004e96;fill-opacity:1;fill-rule:nonzero;stroke:none" /><path
       d="M 481.40353,68.678291 C 480.60053,68.906291 479.86553,69.010291 478.85153,69.010291 C 476.87553,69.010291 474.73953,68.592291 472.68053,67.781291 L 472.68053,55.786291 L 476.62453,55.786291 L 476.62453,65.228291 L 476.68353,65.247291 C 477.54753,65.545291 478.36153,65.680291 479.30553,65.680291 C 480.07653,65.680291 480.75653,65.584291 481.40353,65.376291 L 481.40353,68.678291"
       id="path65"
       style="fill:#004e96;fill-opacity:1;fill-rule:nonzero;stroke:none" /></g></svg>