<?xml version="1.0" encoding="UTF-8" standalone="no"?>
<!-- Created with Inkscape (http://www.inkscape.org/) -->

<svg
   xmlns:dc="http://purl.org/dc/elements/1.1/"
   xmlns:cc="http://creativecommons.org/ns#"
   xmlns:rdf="http://www.w3.org/1999/02/22-rdf-syntax-ns#"
   xmlns:svg="http://www.w3.org/2000/svg"
   xmlns="http://www.w3.org/2000/svg"
   version="1.1"
   width="715.74799"
   height="330.23621"
   id="svg3294">
  <defs
     id="defs3296" />
  <metadata
     id="metadata3299">
    <rdf:RDF>
      <cc:Work
         rdf:about="">
        <dc:format>image/svg+xml</dc:format>
        <dc:type
           rdf:resource="http://purl.org/dc/dcmitype/StillImage" />
        <dc:title></dc:title>
      </cc:Work>
    </rdf:RDF>
  </metadata>
  <g
     transform="translate(-15.220366,-357.56218)"
     id="layer1">
    <g
       transform="matrix(5.5555688,0,0,5.5555688,-1215.9845,-1729.4451)"
       id="g3323">
      <g
         transform="matrix(1.25,0,0,-1.25,340.559,396.22273)"
         id="g3256">
        <path
           d="m 0,0 c -1.639,-1.626 -1.408,-3.002 -1.408,-6.009 0.015,-0.085 0.286,-0.1 0.309,-0.005 0.192,0.764 0.843,1.765 1.576,2.562 0.281,0.306 0.538,0.573 0.782,0.817 0.838,0.767 2.758,1.885 3.748,3.177 1.848,2.412 2.11,5.71 2.11,8.717 C 7.103,9.343 6.832,9.359 6.808,9.264 6.616,8.5 6.168,6.228 4.48,3.994 4.2,3.624 3.884,3.361 3.616,3.094 2.722,2.31 1.076,1.068 0,0 m -2.793,14.655 c -0.006,0.701 -0.58,1.269 -1.284,1.276 l -3.87,-10e-4 0,-3.911 c 0,-0.706 0.567,-1.279 1.267,-1.279 l 3.887,0 0,3.915 z m 0,-10.583 0,3.933 c 0,0.688 -0.307,1.241 -1.017,1.241 l -4.137,0 c 0,-5.779 5.154,-5.174 5.154,-5.174 m 1.39,0 c 0,0 5.152,-0.605 5.152,5.174 l -4.134,0 c -0.711,0 -1.018,-0.553 -1.018,-1.241 l 0,-3.933 m 0,10.583 c 0.005,0.701 0.581,1.269 1.284,1.276 l 3.868,-10e-4 0,-3.911 c 0,-0.706 -0.567,-1.279 -1.265,-1.279 l -3.887,0 0,3.915 z"
           id="path3258"
           style="fill:#e3000f;fill-opacity:1;fill-rule:nonzero;stroke:none" />
      </g>
      <g
         transform="matrix(1.25,0,0,-1.25,222.25414,423.02498)"
         id="g3260">
        <path
           d="m 0,0 102.047,-0.001 0,1.555 L 0,1.555 0,0 z"
           id="path3262"
           style="fill:#e3000f;fill-opacity:1;fill-rule:nonzero;stroke:none" />
      </g>
      <g
         transform="matrix(1.25,0,0,-1.25,347.40339,428.49798)"
         id="g3268">
        <path
           d="m 0,0 -1.25,0 0,-1.819 1.25,0 c 0.601,0 1.009,0.33 1.009,0.906 C 1.009,-0.338 0.601,0 0,0 m 0.048,-2.57 -1.298,0 0,-2.149 -0.865,0 0,5.463 2.163,0 c 1.114,0 1.826,-0.706 1.826,-1.657 0,-0.952 -0.712,-1.657 -1.826,-1.657 m -5.639,-2.195 c -1.162,0 -2.043,0.76 -2.043,1.888 l 0,3.621 0.865,0 0,-3.583 c 0,-0.729 0.465,-1.181 1.178,-1.181 0.713,0 1.185,0.452 1.185,1.181 l 0,3.583 0.866,0 0,-3.621 c 0,-1.128 -0.89,-1.888 -2.051,-1.888 m -4.454,4.473 c -0.2,0.207 -0.513,0.338 -0.849,0.338 -0.337,0 -0.649,-0.131 -0.849,-0.338 -0.281,-0.291 -0.337,-0.598 -0.337,-1.695 0,-1.098 0.056,-1.404 0.337,-1.696 0.2,-0.207 0.512,-0.337 0.849,-0.337 0.336,0 0.649,0.13 0.849,0.337 0.28,0.292 0.336,0.598 0.336,1.696 0,1.097 -0.056,1.404 -0.336,1.695 m 0.657,-3.89 c -0.393,-0.376 -0.897,-0.583 -1.506,-0.583 -0.609,0 -1.106,0.207 -1.498,0.583 -0.561,0.537 -0.553,1.144 -0.553,2.195 0,1.051 -0.008,1.657 0.553,2.194 0.392,0.376 0.889,0.583 1.498,0.583 0.609,0 1.113,-0.207 1.506,-0.583 0.561,-0.537 0.544,-1.143 0.544,-2.194 0,-1.051 0.017,-1.658 -0.544,-2.195 M -15.861,0 l -1.281,0 0,-1.711 1.281,0 c 0.577,0 0.97,0.314 0.97,0.852 0,0.537 -0.393,0.859 -0.97,0.859 m 1.002,-4.719 -1.202,2.302 -1.081,0 0,-2.302 -0.866,0 0,5.463 2.212,0 c 1.081,0 1.77,-0.667 1.77,-1.596 0,-0.782 -0.497,-1.281 -1.138,-1.45 l 1.314,-2.417 -1.009,0 z m -4.911,0.583 c -0.4,-0.406 -0.929,-0.629 -1.554,-0.629 -0.593,0 -1.105,0.207 -1.498,0.583 -0.561,0.537 -0.553,1.144 -0.553,2.195 0,1.051 -0.008,1.657 0.553,2.194 0.393,0.376 0.89,0.583 1.498,0.583 0.777,0 1.21,-0.23 1.723,-0.721 l -0.585,-0.56 c -0.361,0.345 -0.625,0.537 -1.138,0.537 -0.336,0 -0.649,-0.131 -0.849,-0.338 -0.28,-0.291 -0.336,-0.598 -0.336,-1.695 0,-1.098 0.056,-1.412 0.336,-1.704 0.2,-0.207 0.513,-0.329 0.849,-0.329 0.377,0 0.689,0.138 0.913,0.383 0.209,0.223 0.281,0.529 0.281,0.867 l 0,0.299 -1.194,0 0,0.706 2.059,0 0,-0.821 c 0,-0.706 -0.128,-1.166 -0.505,-1.55 m -10.189,-0.583 0,5.463 3.645,0 0,-0.744 -2.78,0 0,-1.596 2.371,0 0,-0.737 -2.371,0 0,-1.641 2.78,0 0,-0.745 -3.645,0 z m -2.78,-0.046 c -0.592,0 -1.105,0.207 -1.498,0.583 -0.56,0.537 -0.552,1.144 -0.552,2.195 0,1.051 -0.008,1.657 0.552,2.194 0.393,0.376 0.906,0.583 1.498,0.583 0.713,0 1.17,-0.245 1.595,-0.644 l -0.577,-0.56 c -0.297,0.283 -0.545,0.46 -1.018,0.46 -0.336,0 -0.64,-0.123 -0.841,-0.33 -0.28,-0.292 -0.336,-0.606 -0.336,-1.703 0,-1.098 0.056,-1.412 0.336,-1.704 0.201,-0.207 0.505,-0.329 0.841,-0.329 0.473,0 0.721,0.176 1.018,0.46 l 0.577,-0.56 c -0.425,-0.399 -0.882,-0.645 -1.595,-0.645 m -4.149,0.046 -2.636,3.844 0,-3.844 -0.865,0 0,5.463 0.794,0 2.635,-3.836 0,3.836 0.865,0 0,-5.463 -0.793,0 z m -6.745,4.228 -0.889,-2.425 1.754,0 -0.865,2.425 z m 1.498,-4.228 -0.392,1.097 -2.251,0 -0.393,-1.097 -0.921,0 2.091,5.463 0.697,0 2.09,-5.463 -0.921,0 z M -48.527,0 l -1.282,0 0,-1.711 1.282,0 c 0.576,0 0.969,0.314 0.969,0.852 0,0.537 -0.393,0.859 -0.969,0.859 m 1.001,-4.719 -1.202,2.302 -1.081,0 0,-2.302 -0.865,0 0,5.463 2.211,0 c 1.081,0 1.77,-0.667 1.77,-1.596 0,-0.782 -0.497,-1.281 -1.137,-1.45 l 1.313,-2.417 -1.009,0 z m -6.625,-0.046 c -1.161,0 -2.042,0.76 -2.042,1.888 l 0,3.621 0.865,0 0,-3.583 c 0,-0.729 0.464,-1.181 1.177,-1.181 0.713,0 1.186,0.452 1.186,1.181 l 0,3.583 0.865,0 0,-3.621 c 0,-1.128 -0.889,-1.888 -2.051,-1.888 m -5.182,0 c -0.858,0 -1.474,0.192 -2.019,0.721 l 0.577,0.545 c 0.416,-0.399 0.873,-0.521 1.458,-0.521 0.745,0 1.177,0.306 1.177,0.836 0,0.238 -0.072,0.437 -0.224,0.568 -0.144,0.13 -0.288,0.184 -0.625,0.23 l -0.673,0.092 c -0.464,0.061 -0.833,0.215 -1.081,0.437 -0.281,0.253 -0.417,0.599 -0.417,1.044 0,0.951 0.721,1.603 1.907,1.603 0.753,0 1.281,-0.184 1.77,-0.621 l -0.553,-0.522 c -0.352,0.322 -0.761,0.422 -1.241,0.422 -0.673,0 -1.042,-0.368 -1.042,-0.852 0,-0.199 0.064,-0.376 0.217,-0.506 0.144,-0.123 0.376,-0.215 0.64,-0.253 l 0.649,-0.092 c 0.529,-0.077 0.826,-0.2 1.066,-0.407 0.312,-0.261 0.464,-0.652 0.464,-1.12 0,-1.005 -0.857,-1.604 -2.05,-1.604 m -3.821,0.046 -2.636,3.844 0,-3.844 -0.865,0 0,5.463 0.793,0 2.636,-3.836 0,3.836 0.865,0 0,-5.463 -0.793,0 z m -5.88,5.463 0.865,0 0,-5.463 -0.865,0 0,5.463 z m -5.191,-1.235 -0.889,-2.425 1.754,0 -0.865,2.425 z m 1.498,-4.228 -0.392,1.097 -2.251,0 -0.393,-1.097 -0.921,0 2.091,5.463 0.697,0 2.091,-5.463 -0.922,0 z m -5.583,0 -2.635,3.844 0,-3.844 -0.866,0 0,5.463 0.793,0 2.636,-3.836 0,3.836 0.865,0 0,-5.463 -0.793,0 z m -5.807,0 -2.636,3.844 0,-3.844 -0.865,0 0,5.463 0.793,0 2.636,-3.836 0,3.836 0.865,0 0,-5.463 -0.793,0 z m -8.356,0 0,5.463 3.645,0 0,-0.744 -2.779,0 0,-1.596 2.371,0 0,-0.737 -2.371,0 0,-1.641 2.779,0 0,-0.745 -3.645,0 z m -2.379,5.463 0.865,0 0,-5.463 -0.865,0 0,5.463 z m -2.699,-5.463 -0.673,0 -1.875,5.463 0.898,0 1.314,-3.974 1.313,3.974 0.913,0 -1.89,-5.463 z"
           id="path3270"
           style="fill:#000000;fill-opacity:1;fill-rule:nonzero;stroke:none" />
      </g>
      <g
         transform="matrix(1.25,0,0,-1.25,323.95278,411.77685)"
         id="g3272">
        <path
           d="m 0,0 c 0,-0.909 -0.037,-0.976 -0.481,-1.211 -2.406,-1.144 -6.033,-1.514 -8.92,-1.514 -9.067,0 -17.099,3.903 -17.099,13.189 0,5.383 3.072,9.152 6.44,11.002 3.553,1.952 6.847,2.187 9.956,2.187 2.554,0 5.811,-0.404 6.551,-0.538 0.777,-0.135 2.073,-0.337 2.924,-0.37 0.444,-0.034 0.518,-0.168 0.518,-0.404 0,-0.37 -0.259,-1.312 -0.259,-5.518 0,-0.538 -0.111,-0.707 -0.407,-0.707 -0.259,0 -0.333,0.169 -0.37,0.438 -0.111,0.774 -0.296,1.85 -1.259,2.792 -1.11,1.077 -4.071,2.625 -8.253,2.625 -2.036,0 -4.737,-0.135 -7.328,-2.086 -2.073,-1.582 -3.405,-4.105 -3.405,-8.244 0,-7.233 5.07,-12.65 12.88,-12.65 0.962,0 2.257,0 3.145,0.37 0.556,0.235 0.704,0.673 0.704,1.245 l 0,3.162 c 0,1.683 0,2.961 -0.037,3.971 -0.037,1.144 -0.37,1.682 -1.592,1.917 -0.296,0.068 -0.925,0.101 -1.443,0.101 -0.333,0 -0.555,0.068 -0.555,0.27 0,0.269 0.259,0.336 0.777,0.336 1.924,0 4.256,-0.101 5.366,-0.101 1.148,0 3.109,0.101 4.331,0.101 0.481,0 0.74,-0.067 0.74,-0.336 0,-0.202 -0.222,-0.27 -0.481,-0.27 C 2.147,9.757 1.888,9.724 1.444,9.656 0.444,9.488 0.074,8.916 0.037,7.739 0,6.729 0,5.383 0,3.701 L 0,0 z m -35.99,13.425 c 0,5.114 0,6.056 -0.068,7.133 -0.069,1.144 -0.411,1.716 -1.163,1.884 -0.376,0.101 -0.82,0.135 -1.231,0.135 -0.342,0 -0.547,0.067 -0.547,0.336 0,0.202 0.274,0.269 0.821,0.269 1.299,0 3.453,-0.101 4.445,-0.101 0.855,0 2.872,0.101 4.172,0.101 0.444,0 0.718,-0.067 0.718,-0.269 0,-0.269 -0.205,-0.336 -0.547,-0.336 -0.342,0 -0.616,-0.034 -1.026,-0.101 -0.923,-0.169 -1.197,-0.741 -1.265,-1.918 -0.069,-1.077 -0.069,-2.019 -0.069,-7.133 l 0,-5.922 c 0,-3.264 0,-5.922 0.137,-7.368 0.103,-0.909 0.342,-1.514 1.368,-1.649 0.479,-0.067 1.231,-0.135 1.744,-0.135 0.376,0 0.547,-0.101 0.547,-0.269 0,-0.235 -0.274,-0.336 -0.65,-0.336 -2.257,0 -4.411,0.101 -5.334,0.101 -0.787,0 -2.941,-0.101 -4.309,-0.101 -0.444,0 -0.684,0.101 -0.684,0.336 0,0.168 0.137,0.269 0.547,0.269 0.513,0 0.924,0.068 1.231,0.135 0.684,0.135 0.89,0.706 0.992,1.682 0.171,1.413 0.171,4.071 0.171,7.335 l 0,5.922 z m -27.904,6.46 c -0.786,1.85 -1.368,2.22 -2.599,2.557 -0.513,0.135 -1.06,0.135 -1.333,0.135 -0.308,0 -0.411,0.1 -0.411,0.302 0,0.269 0.377,0.303 0.89,0.303 1.812,0 3.761,-0.101 4.958,-0.101 0.855,0 2.496,0.101 4.206,0.101 0.41,0 0.786,-0.067 0.786,-0.303 0,-0.235 -0.205,-0.302 -0.513,-0.302 -0.547,0 -1.06,-0.034 -1.333,-0.236 -0.239,-0.168 -0.342,-0.404 -0.342,-0.707 0,-0.437 0.308,-1.379 0.786,-2.59 l 5.882,-15.276 0.137,0 c 1.47,3.701 5.916,14.535 6.736,16.756 0.171,0.437 0.308,0.942 0.308,1.245 0,0.269 -0.137,0.538 -0.445,0.639 -0.41,0.135 -0.923,0.169 -1.367,0.169 -0.308,0 -0.582,0.033 -0.582,0.269 0,0.269 0.308,0.336 0.958,0.336 1.71,0 3.146,-0.101 3.59,-0.101 0.582,0 2.189,0.101 3.215,0.101 0.444,0 0.718,-0.067 0.718,-0.303 0,-0.235 -0.205,-0.302 -0.547,-0.302 -0.342,0 -1.06,0 -1.676,-0.404 -0.444,-0.303 -0.957,-0.875 -1.881,-3.028 -1.333,-3.163 -2.256,-4.98 -4.103,-9.118 -2.189,-4.913 -3.796,-8.58 -4.548,-10.262 -0.889,-1.952 -1.094,-2.49 -1.573,-2.49 -0.445,0 -0.65,0.471 -1.3,2.052 l -8.617,20.558 z"
           id="path3274"
           style="fill:#565e61;fill-opacity:1;fill-rule:nonzero;stroke:none" />
      </g>
    </g>
  </g>
</svg>
